<svg width="1137.600048828125px" height="230.8000061035156px" xmlns="http://www.w3.org/2000/svg" viewBox="-318.8000244140625 -40.40000305175781 1137.600048828125 230.8000061035156" style="background: none;" preserveAspectRatio="xMidYMid"><defs><filter id="editing-extrusion" x="-100%" y="-100%" width="300%" height="300%"><feFlood result="color1" flood-color="#ffffff"></feFlood><feConvolveMatrix order="1,1" divisor="1" kernelMatrix="1" in="SourceAlpha" result="extrude"></feConvolveMatrix><feComposite in="color1" in2="extrude" result="comp-extrude" operator="in"></feComposite><feOffset dx="0.5" dy="0.5" in="comp-extrude" result="offset-extrude"></feOffset><feMerge><feMergeNode in="offset-extrude"></feMergeNode><feMergeNode in="SourceGraphic"></feMergeNode></feMerge></filter></defs><g filter="url(#editing-extrusion)"><g transform="translate(-164.5500087738037, 136.43999123573303)"><path d="M14.41 0L14.41 0Q13.10 0 12.25-0.85L12.25-0.85L12.25-0.85Q11.40-1.70 11.40-3.01L11.40-3.01L11.40-88.56L11.40-88.56Q11.40-90.00 12.25-90.85L12.25-90.85L12.25-90.85Q13.10-91.70 14.41-91.70L14.41-91.70L47.68-91.70L47.68-91.70Q62.49-91.70 71.00-84.50L71.00-84.50L71.00-84.50Q79.52-77.29 79.52-63.67L79.52-63.67L79.52-63.67Q79.52-50.04 71.07-42.90L71.07-42.90L71.07-42.90Q62.62-35.76 47.68-35.76L47.68-35.76L24.50-35.76L24.50-3.01L24.50-3.01Q24.50-1.70 23.58-0.85L23.58-0.85L23.58-0.85Q22.66 0 21.35 0L21.35 0L14.41 0ZM24.37-46.77L47.03-46.77L47.03-46.77Q56.59-46.77 61.50-51.09L61.50-51.09L61.50-51.09Q66.42-55.41 66.42-63.67L66.42-63.67L66.42-63.67Q66.42-71.92 61.57-76.31L61.57-76.31L61.57-76.31Q56.72-80.70 47.03-80.70L47.03-80.70L24.37-80.70L24.37-46.77ZM96.81 0L96.81 0Q95.50 0 94.65-0.85L94.65-0.85L94.65-0.85Q93.80-1.70 93.80-3.01L93.80-3.01L93.80-64.98L93.80-64.98Q93.80-66.29 94.65-67.20L94.65-67.20L94.65-67.20Q95.50-68.12 96.81-68.12L96.81-68.12L102.84-68.12L102.84-68.12Q104.15-68.12 105.06-67.20L105.06-67.20L105.06-67.20Q105.98-66.29 105.98-64.98L105.98-64.98L105.98-59.21L105.98-59.21Q111.35-68.12 124.32-68.12L124.32-68.12L129.43-68.12L129.43-68.12Q130.74-68.12 131.59-67.27L131.59-67.27L131.59-67.27Q132.44-66.42 132.44-65.11L132.44-65.11L132.44-59.74L132.44-59.74Q132.44-58.43 131.59-57.64L131.59-57.64L131.59-57.64Q130.74-56.85 129.43-56.85L129.43-56.85L121.57-56.85L121.57-56.85Q114.49-56.85 110.43-52.73L110.43-52.73L110.43-52.73Q106.37-48.60 106.37-41.53L106.37-41.53L106.37-3.01L106.37-3.01Q106.37-1.70 105.46-0.85L105.46-0.85L105.46-0.85Q104.54 0 103.23 0L103.23 0L96.81 0ZM145.54-80.83L145.54-80.83Q144.23-80.83 143.38-81.68L143.38-81.68L143.38-81.68Q142.53-82.53 142.53-83.84L142.53-83.84L142.53-90.91L142.53-90.91Q142.53-92.22 143.38-93.14L143.38-93.14L143.38-93.14Q144.23-94.06 145.54-94.06L145.54-94.06L153.79-94.06L153.79-94.06Q155.10-94.06 156.02-93.14L156.02-93.14L156.02-93.14Q156.94-92.22 156.94-90.91L156.94-90.91L156.94-83.84L156.94-83.84Q156.94-82.53 156.02-81.68L156.02-81.68L156.02-81.68Q155.10-80.83 153.79-80.83L153.79-80.83L145.54-80.83ZM146.59 0L146.59 0Q145.28 0 144.43-0.85L144.43-0.85L144.43-0.85Q143.58-1.70 143.58-3.01L143.58-3.01L143.58-65.11L143.58-65.11Q143.58-66.42 144.43-67.27L144.43-67.27L144.43-67.27Q145.28-68.12 146.59-68.12L146.59-68.12L152.88-68.12L152.88-68.12Q154.19-68.12 155.04-67.27L155.04-67.27L155.04-67.27Q155.89-66.42 155.89-65.11L155.89-65.11L155.89-3.01L155.89-3.01Q155.89-1.70 155.04-0.85L155.04-0.85L155.04-0.85Q154.19 0 152.88 0L152.88 0L146.59 0ZM178.29 0L178.29 0Q176.98 0 176.13-0.85L176.13-0.85L176.13-0.85Q175.28-1.70 175.28-3.01L175.28-3.01L175.28-65.11L175.28-65.11Q175.28-66.42 176.13-67.27L176.13-67.27L176.13-67.27Q176.98-68.12 178.29-68.12L178.29-68.12L184.45-68.12L184.45-68.12Q185.76-68.12 186.61-67.27L186.61-67.27L186.61-67.27Q187.46-66.42 187.46-65.11L187.46-65.11L187.46-59.34L187.46-59.34Q191.26-64.19 196.43-66.81L196.43-66.81L196.43-66.81Q201.61-69.43 209.34-69.43L209.34-69.43L209.34-69.43Q221.91-69.43 228.92-61.37L228.92-61.37L228.92-61.37Q235.93-53.32 235.93-39.95L235.93-39.95L235.93-3.01L235.93-3.01Q235.93-1.70 235.08-0.85L235.08-0.85L235.08-0.85Q234.23 0 232.92 0L232.92 0L226.37 0L226.37 0Q225.06 0 224.21-0.85L224.21-0.85L224.21-0.85Q223.36-1.70 223.36-3.01L223.36-3.01L223.36-39.30L223.36-39.30Q223.36-48.60 218.84-53.71L218.84-53.71L218.84-53.71Q214.32-58.82 205.80-58.82L205.80-58.82L205.80-58.82Q197.55-58.82 192.70-53.64L192.70-53.64L192.70-53.64Q187.85-48.47 187.85-39.30L187.85-39.30L187.85-3.01L187.85-3.01Q187.85-1.70 187.00-0.85L187.00-0.85L187.00-0.85Q186.15 0 184.84 0L184.84 0L178.29 0ZM281.26 0L281.26 0Q260.56 0 260.56-23.06L260.56-23.06L260.56-57.64L250.34-57.64L250.34-57.64Q249.03-57.64 248.18-58.49L248.18-58.49L248.18-58.49Q247.33-59.34 247.33-60.65L247.33-60.65L247.33-65.11L247.33-65.11Q247.33-66.42 248.18-67.27L248.18-67.27L248.18-67.27Q249.03-68.12 250.34-68.12L250.34-68.12L260.56-68.12L260.56-90.00L260.56-90.00Q260.56-91.31 261.41-92.16L261.41-92.16L261.41-92.16Q262.26-93.01 263.57-93.01L263.57-93.01L269.73-93.01L269.73-93.01Q271.04-93.01 271.89-92.16L271.89-92.16L271.89-92.16Q272.74-91.31 272.74-90.00L272.74-90.00L272.74-68.12L288.99-68.12L288.99-68.12Q290.30-68.12 291.15-67.27L291.15-67.27L291.15-67.27Q292.00-66.42 292.00-65.11L292.00-65.11L292.00-60.65L292.00-60.65Q292.00-59.34 291.15-58.49L291.15-58.49L291.15-58.49Q290.30-57.64 288.99-57.64L288.99-57.64L272.74-57.64L272.74-23.97L272.74-23.97Q272.74-17.42 274.97-14.08L274.97-14.08L274.97-14.08Q277.20-10.74 282.31-10.74L282.31-10.74L290.30-10.74L290.30-10.74Q291.61-10.74 292.46-9.89L292.46-9.89L292.46-9.89Q293.31-9.04 293.31-7.73L293.31-7.73L293.31-3.01L293.31-3.01Q293.31-1.70 292.46-0.85L292.46-0.85L292.46-0.85Q291.61 0 290.30 0L290.30 0L281.26 0ZM310.60 0L310.60 0Q309.29 0 308.44-0.85L308.44-0.85L308.44-0.85Q307.59-1.70 307.59-3.01L307.59-3.01L307.59-88.56L307.59-88.56Q307.59-90.00 308.44-90.85L308.44-90.85L308.44-90.85Q309.29-91.70 310.60-91.70L310.60-91.70L364.05-91.70L364.05-91.70Q365.49-91.70 366.34-90.85L366.34-90.85L366.34-90.85Q367.19-90.00 367.19-88.56L367.19-88.56L367.19-83.32L367.19-83.32Q367.19-82.01 366.34-81.15L366.34-81.15L366.34-81.15Q365.49-80.30 364.05-80.30L364.05-80.30L320.30-80.30L320.30-49.78L361.43-49.78L361.43-49.78Q362.87-49.78 363.72-48.93L363.72-48.93L363.72-48.93Q364.57-48.08 364.57-46.64L364.57-46.64L364.57-41.40L364.57-41.40Q364.57-40.09 363.66-39.23L363.66-39.23L363.66-39.23Q362.74-38.38 361.43-38.38L361.43-38.38L320.30-38.38L320.30-3.01L320.30-3.01Q320.30-1.70 319.38-0.85L319.38-0.85L319.38-0.85Q318.46 0 317.15 0L317.15 0L310.60 0ZM410.29 1.31L410.29 1.31Q395.88 1.31 387.96-6.81L387.96-6.81L387.96-6.81Q380.03-14.93 379.51-28.43L379.51-28.43L379.38-34.06L379.51-39.69L379.51-39.69Q380.03-53.05 388.02-61.24L388.02-61.24L388.02-61.24Q396.01-69.43 410.29-69.43L410.29-69.43L410.29-69.43Q424.57-69.43 432.56-61.24L432.56-61.24L432.56-61.24Q440.55-53.05 441.08-39.69L441.08-39.69L441.08-39.69Q441.21-38.25 441.21-34.06L441.21-34.06L441.21-34.06Q441.21-29.87 441.08-28.43L441.08-28.43L441.08-28.43Q440.55-14.93 432.63-6.81L432.63-6.81L432.63-6.81Q424.70 1.31 410.29 1.31L410.29 1.31ZM410.29-8.78L410.29-8.78Q418.55-8.78 423.33-14.02L423.33-14.02L423.33-14.02Q428.11-19.26 428.50-29.08L428.50-29.08L428.50-29.08Q428.63-30.39 428.63-34.06L428.63-34.06L428.63-34.06Q428.63-37.73 428.50-39.04L428.50-39.04L428.50-39.04Q428.11-48.86 423.33-54.10L423.33-54.10L423.33-54.10Q418.55-59.34 410.29-59.34L410.29-59.34L410.29-59.34Q402.04-59.34 397.19-54.10L397.19-54.10L397.19-54.10Q392.35-48.86 392.08-39.04L392.08-39.04L391.95-34.06L392.08-29.08L392.08-29.08Q392.35-19.26 397.19-14.02L397.19-14.02L397.19-14.02Q402.04-8.78 410.29-8.78L410.29-8.78ZM460.60 0L460.60 0Q459.29 0 458.43-0.85L458.43-0.85L458.43-0.85Q457.58-1.70 457.58-3.01L457.58-3.01L457.58-64.98L457.58-64.98Q457.58-66.29 458.43-67.20L458.43-67.20L458.43-67.20Q459.29-68.12 460.60-68.12L460.60-68.12L466.62-68.12L466.62-68.12Q467.93-68.12 468.85-67.20L468.85-67.20L468.85-67.20Q469.77-66.29 469.77-64.98L469.77-64.98L469.77-59.21L469.77-59.21Q475.14-68.12 488.11-68.12L488.11-68.12L493.22-68.12L493.22-68.12Q494.53-68.12 495.38-67.27L495.38-67.27L495.38-67.27Q496.23-66.42 496.23-65.11L496.23-65.11L496.23-59.74L496.23-59.74Q496.23-58.43 495.38-57.64L495.38-57.64L495.38-57.64Q494.53-56.85 493.22-56.85L493.22-56.85L485.36-56.85L485.36-56.85Q478.28-56.85 474.22-52.73L474.22-52.73L474.22-52.73Q470.16-48.60 470.16-41.53L470.16-41.53L470.16-3.01L470.16-3.01Q470.16-1.70 469.24-0.85L469.24-0.85L469.24-0.85Q468.33 0 467.02 0L467.02 0L460.60 0ZM535.27 28.82L535.27 28.82Q524.52 28.82 517.97 25.22L517.97 25.22L517.97 25.22Q511.42 21.62 508.67 17.03L508.67 17.03L508.67 17.03Q505.92 12.45 505.66 8.78L505.66 8.78L505.66 8.78Q505.53 7.47 506.51 6.55L506.51 6.55L506.51 6.55Q507.49 5.63 508.67 5.63L508.67 5.63L514.96 5.63L514.96 5.63Q516.14 5.63 516.93 6.22L516.93 6.22L516.93 6.22Q517.71 6.81 518.24 8.38L518.24 8.38L518.24 8.38Q519.81 12.58 523.41 15.65L523.41 15.65L523.41 15.65Q527.01 18.73 534.61 18.73L534.61 18.73L534.61 18.73Q544.31 18.73 548.89 14.61L548.89 14.61L548.89 14.61Q553.48 10.48 553.48 0L553.48 0L553.48-8.91L553.48-8.91Q550.07-4.58 544.83-2.03L544.83-2.03L544.83-2.03Q539.59 0.52 532.38 0.52L532.38 0.52L532.38 0.52Q518.50 0.52 511.62-8.32L511.62-8.32L511.62-8.32Q504.74-17.16 504.35-30.79L504.35-30.79L504.22-34.45L504.35-37.99L504.35-37.99Q504.74-51.48 511.69-60.46L511.69-60.46L511.69-60.46Q518.63-69.43 532.38-69.43L532.38-69.43L532.38-69.43Q546.14-69.43 553.87-59.34L553.87-59.34L553.87-64.98L553.87-64.98Q553.87-66.29 554.72-67.20L554.72-67.20L554.72-67.20Q555.57-68.12 556.88-68.12L556.88-68.12L562.91-68.12L562.91-68.12Q564.22-68.12 565.13-67.20L565.13-67.20L565.13-67.20Q566.05-66.29 566.05-64.98L566.05-64.98L566.05-1.44L566.05-1.44Q566.05 28.82 535.27 28.82L535.27 28.82ZM535.00-9.96L535.00-9.96Q543.91-9.96 548.50-15.85L548.50-15.85L548.50-15.85Q553.08-21.75 553.48-29.87L553.48-29.87L553.48-29.87Q553.61-31.05 553.61-34.45L553.61-34.45L553.61-34.45Q553.61-37.73 553.48-38.91L553.48-38.91L553.48-38.91Q553.08-47.03 548.56-52.92L548.56-52.92L548.56-52.92Q544.04-58.82 535.00-58.82L535.00-58.82L535.00-58.82Q525.70-58.82 521.51-53.05L521.51-53.05L521.51-53.05Q517.32-47.29 516.93-37.86L516.93-37.86L516.80-34.45L516.93-30.92L516.93-30.92Q517.32-21.62 521.51-15.79L521.51-15.79L521.51-15.79Q525.70-9.96 535.00-9.96L535.00-9.96ZM612.82 1.31L612.82 1.31Q599.33 1.31 591.27-7.01L591.27-7.01L591.27-7.01Q583.21-15.33 582.43-29.74L582.43-29.74L582.30-34.19L582.43-38.51L582.43-38.51Q583.34-52.66 591.40-61.05L591.40-61.05L591.40-61.05Q599.46-69.43 612.69-69.43L612.69-69.43L612.69-69.43Q627.23-69.43 635.22-60.19L635.22-60.19L635.22-60.19Q643.21-50.96 643.21-35.24L643.21-35.24L643.21-33.01L643.21-33.01Q643.21-31.70 642.36-30.85L642.36-30.85L642.36-30.85Q641.51-30.00 640.20-30.00L640.20-30.00L594.87-30.00L594.87-28.82L594.87-28.82Q595.26-20.30 600.05-14.34L600.05-14.34L600.05-14.34Q604.83-8.38 612.69-8.38L612.69-8.38L612.69-8.38Q618.71-8.38 622.58-10.81L622.58-10.81L622.58-10.81Q626.44-13.23 628.28-15.85L628.28-15.85L628.28-15.85Q629.46-17.42 630.04-17.75L630.04-17.75L630.04-17.75Q630.63-18.08 632.21-18.08L632.21-18.08L638.63-18.08L638.63-18.08Q639.80-18.08 640.59-17.42L640.59-17.42L640.59-17.42Q641.38-16.77 641.38-15.59L641.38-15.59L641.38-15.59Q641.38-12.71 637.77-8.65L637.77-8.65L637.77-8.65Q634.17-4.58 627.69-1.64L627.69-1.64L627.69-1.64Q621.20 1.31 612.82 1.31L612.82 1.31ZM594.87-39.04L630.77-39.04L630.77-39.43L630.77-39.43Q630.77-48.47 625.85-54.17L625.85-54.17L625.85-54.17Q620.94-59.87 612.69-59.87L612.69-59.87L612.69-59.87Q604.43-59.87 599.65-54.17L599.65-54.17L599.65-54.17Q594.87-48.47 594.87-39.43L594.87-39.43L594.87-39.04ZM661.03 0L661.03 0Q659.72 0 658.86-0.85L658.86-0.85L658.86-0.85Q658.01-1.70 658.01-3.01L658.01-3.01L658.01-12.45L658.01-12.45Q658.01-13.76 658.86-14.61L658.86-14.61L658.86-14.61Q659.72-15.46 661.03-15.46L661.03-15.46L670.46-15.46L670.46-15.46Q671.77-15.46 672.69-14.61L672.69-14.61L672.69-14.61Q673.60-13.76 673.60-12.45L673.60-12.45L673.60-3.01L673.60-3.01Q673.60-1.70 672.69-0.85L672.69-0.85L672.69-0.85Q671.77 0 670.46 0L670.46 0L661.03 0ZM719.45 1.31L719.45 1.31Q705.44 1.31 697.51-6.62L697.51-6.62L697.51-6.62Q689.58-14.54 689.06-28.82L689.06-28.82L688.93-34.06L689.06-39.30L689.06-39.30Q689.58-53.58 697.51-61.50L697.51-61.50L697.51-61.50Q705.44-69.43 719.45-69.43L719.45-69.43L719.45-69.43Q728.88-69.43 735.43-66.02L735.43-66.02L735.43-66.02Q741.98-62.62 745.19-57.64L745.19-57.64L745.19-57.64Q748.40-52.66 748.67-47.68L748.67-47.68L748.67-47.68Q748.80-46.37 747.88-45.59L747.88-45.59L747.88-45.59Q746.96-44.80 745.65-44.80L745.65-44.80L739.36-44.80L739.36-44.80Q738.05-44.80 737.40-45.33L737.40-45.33L737.40-45.33Q736.74-45.85 736.09-47.42L736.09-47.42L736.09-47.42Q733.86-53.71 729.80-56.40L729.80-56.40L729.80-56.40Q725.74-59.08 719.58-59.08L719.58-59.08L719.58-59.08Q711.46-59.08 706.68-54.04L706.68-54.04L706.68-54.04Q701.90-48.99 701.50-38.65L701.50-38.65L701.37-33.93L701.50-29.48L701.50-29.48Q701.90-19.00 706.61-14.02L706.61-14.02L706.61-14.02Q711.33-9.04 719.58-9.04L719.58-9.04L719.58-9.04Q725.74-9.04 729.80-11.72L729.80-11.72L729.80-11.72Q733.86-14.41 736.09-20.70L736.09-20.70L736.09-20.70Q736.74-22.27 737.40-22.86L737.40-22.86L737.40-22.86Q738.05-23.45 739.36-23.45L739.36-23.45L745.65-23.45L745.65-23.45Q746.96-23.45 747.88-22.60L747.88-22.60L747.88-22.60Q748.80-21.75 748.67-20.44L748.67-20.44L748.67-20.44Q748.40-15.59 745.19-10.55L745.19-10.55L745.19-10.55Q741.98-5.50 735.50-2.10L735.50-2.10L735.50-2.10Q729.02 1.31 719.45 1.31L719.45 1.31ZM783.25 1.31L783.25 1.31Q776.83 1.31 771.33-1.31L771.33-1.31L771.33-1.31Q765.83-3.93 762.62-8.45L762.62-8.45L762.62-8.45Q759.41-12.97 759.41-18.47L759.41-18.47L759.41-18.47Q759.41-27.12 766.55-32.68L766.55-32.68L766.55-32.68Q773.69-38.25 785.87-39.95L785.87-39.95L805.39-42.71L805.39-46.51L805.39-46.51Q805.39-59.87 790.06-59.87L790.06-59.87L790.06-59.87Q784.30-59.87 780.63-57.44L780.63-57.44L780.63-57.44Q776.96-55.02 775.13-51.75L775.13-51.75L775.13-51.75Q774.73-50.57 774.14-50.04L774.14-50.04L774.14-50.04Q773.56-49.52 772.51-49.52L772.51-49.52L766.87-49.52L766.87-49.52Q765.70-49.52 764.84-50.37L764.84-50.37L764.84-50.37Q763.99-51.22 763.99-52.40L763.99-52.40L763.99-52.40Q764.12-55.54 766.94-59.54L766.94-59.54L766.94-59.54Q769.76-63.54 775.65-66.48L775.65-66.48L775.65-66.48Q781.55-69.43 790.19-69.43L790.19-69.43L790.19-69.43Q804.86-69.43 811.28-62.55L811.28-62.55L811.28-62.55Q817.70-55.68 817.70-45.46L817.70-45.46L817.70-3.01L817.70-3.01Q817.70-1.70 816.85-0.85L816.85-0.85L816.85-0.85Q816.00 0 814.69 0L814.69 0L808.66 0L808.66 0Q807.35 0 806.50-0.85L806.50-0.85L806.50-0.85Q805.65-1.70 805.65-3.01L805.65-3.01L805.65-8.65L805.65-8.65Q802.77-4.45 797.27-1.57L797.27-1.57L797.27-1.57Q791.76 1.31 783.25 1.31L783.25 1.31ZM786.00-8.52L786.00-8.52Q794.52-8.52 799.95-14.08L799.95-14.08L799.95-14.08Q805.39-19.65 805.39-30.13L805.39-30.13L805.39-33.80L790.19-31.57L790.19-31.57Q780.89-30.26 776.18-27.18L776.18-27.18L776.18-27.18Q771.46-24.10 771.46-19.39L771.46-19.39L771.46-19.39Q771.46-14.15 775.78-11.33L775.78-11.33L775.78-11.33Q780.11-8.52 786.00-8.52L786.00-8.52Z" fill="#ffffff"></path></g></g><style>text {
  font-size: 64px;
  font-family: Arial Black;
  dominant-baseline: central;
  text-anchor: middle;
}</style></svg>